<svg xmlns="http://www.w3.org/2000/svg" viewBox="0 0 240 240" role="img" aria-labelledby="title"><title id="title">Layered ruffled marigold flower</title><defs><filter id="s" x="-30%" y="-30%" width="160%" height="160%"><feDropShadow dx="0" dy="5" stdDeviation="5" flood-color="#26164d" flood-opacity=".2"/></filter><filter id="g" x="-80%" y="-80%" width="260%" height="260%"><feGaussianBlur stdDeviation="7" result="b"/><feMerge><feMergeNode in="b"/><feMergeNode in="SourceGraphic"/></feMerge></filter><linearGradient id="gold" x1="0" y1="0" x2="1" y2="1"><stop stop-color="#ffe28b"/><stop offset=".48" stop-color="#e5a52e"/><stop offset="1" stop-color="#a65d0c"/></linearGradient><linearGradient id="leaf" x1="0" y1="0" x2="1" y2="1"><stop stop-color="#6aa84f"/><stop offset="1" stop-color="#174b35"/></linearGradient></defs><g filter="url(#s)"><ellipse cx="120" cy="64" rx="18" ry="29" fill="#FFC333" opacity="1" transform="rotate(5 120 120)"/><ellipse cx="120" cy="64" rx="18" ry="29" fill="#FFC333" opacity="1" transform="rotate(21.363636363636363 120 120)"/><ellipse cx="120" cy="64" rx="18" ry="29" fill="#FFC333" opacity="1" transform="rotate(37.72727272727273 120 120)"/><ellipse cx="120" cy="64" rx="18" ry="29" fill="#FFC333" opacity="1" transform="rotate(54.09090909090909 120 120)"/><ellipse cx="120" cy="64" rx="18" ry="29" fill="#FFC333" opacity="1" transform="rotate(70.45454545454545 120 120)"/><ellipse cx="120" cy="64" rx="18" ry="29" fill="#FFC333" opacity="1" transform="rotate(86.81818181818181 120 120)"/><ellipse cx="120" cy="64" rx="18" ry="29" fill="#FFC333" opacity="1" transform="rotate(103.18181818181819 120 120)"/><ellipse cx="120" cy="64" rx="18" ry="29" fill="#FFC333" opacity="1" transform="rotate(119.54545454545455 120 120)"/><ellipse cx="120" cy="64" rx="18" ry="29" fill="#FFC333" opacity="1" transform="rotate(135.9090909090909 120 120)"/><ellipse cx="120" cy="64" rx="18" ry="29" fill="#FFC333" opacity="1" transform="rotate(152.27272727272728 120 120)"/><ellipse cx="120" cy="64" rx="18" ry="29" fill="#FFC333" opacity="1" transform="rotate(168.63636363636363 120 120)"/><ellipse cx="120" cy="64" rx="18" ry="29" fill="#FFC333" opacity="1" transform="rotate(185 120 120)"/><ellipse cx="120" cy="64" rx="18" ry="29" fill="#FFC333" opacity="1" transform="rotate(201.36363636363637 120 120)"/><ellipse cx="120" cy="64" rx="18" ry="29" fill="#FFC333" opacity="1" transform="rotate(217.72727272727272 120 120)"/><ellipse cx="120" cy="64" rx="18" ry="29" fill="#FFC333" opacity="1" transform="rotate(234.0909090909091 120 120)"/><ellipse cx="120" cy="64" rx="18" ry="29" fill="#FFC333" opacity="1" transform="rotate(250.45454545454544 120 120)"/><ellipse cx="120" cy="64" rx="18" ry="29" fill="#FFC333" opacity="1" transform="rotate(266.8181818181818 120 120)"/><ellipse cx="120" cy="64" rx="18" ry="29" fill="#FFC333" opacity="1" transform="rotate(283.1818181818182 120 120)"/><ellipse cx="120" cy="64" rx="18" ry="29" fill="#FFC333" opacity="1" transform="rotate(299.54545454545456 120 120)"/><ellipse cx="120" cy="64" rx="18" ry="29" fill="#FFC333" opacity="1" transform="rotate(315.9090909090909 120 120)"/><ellipse cx="120" cy="64" rx="18" ry="29" fill="#FFC333" opacity="1" transform="rotate(332.27272727272725 120 120)"/><ellipse cx="120" cy="64" rx="18" ry="29" fill="#FFC333" opacity="1" transform="rotate(348.6363636363636 120 120)"/><ellipse cx="120" cy="83" rx="18" ry="25" fill="#EE8A15" opacity="1" transform="rotate(12 120 120)"/><ellipse cx="120" cy="83" rx="18" ry="25" fill="#EE8A15" opacity="1" transform="rotate(32 120 120)"/><ellipse cx="120" cy="83" rx="18" ry="25" fill="#EE8A15" opacity="1" transform="rotate(52 120 120)"/><ellipse cx="120" cy="83" rx="18" ry="25" fill="#EE8A15" opacity="1" transform="rotate(72 120 120)"/><ellipse cx="120" cy="83" rx="18" ry="25" fill="#EE8A15" opacity="1" transform="rotate(92 120 120)"/><ellipse cx="120" cy="83" rx="18" ry="25" fill="#EE8A15" opacity="1" transform="rotate(112 120 120)"/><ellipse cx="120" cy="83" rx="18" ry="25" fill="#EE8A15" opacity="1" transform="rotate(132 120 120)"/><ellipse cx="120" cy="83" rx="18" ry="25" fill="#EE8A15" opacity="1" transform="rotate(152 120 120)"/><ellipse cx="120" cy="83" rx="18" ry="25" fill="#EE8A15" opacity="1" transform="rotate(172 120 120)"/><ellipse cx="120" cy="83" rx="18" ry="25" fill="#EE8A15" opacity="1" transform="rotate(192 120 120)"/><ellipse cx="120" cy="83" rx="18" ry="25" fill="#EE8A15" opacity="1" transform="rotate(212 120 120)"/><ellipse cx="120" cy="83" rx="18" ry="25" fill="#EE8A15" opacity="1" transform="rotate(232 120 120)"/><ellipse cx="120" cy="83" rx="18" ry="25" fill="#EE8A15" opacity="1" transform="rotate(252 120 120)"/><ellipse cx="120" cy="83" rx="18" ry="25" fill="#EE8A15" opacity="1" transform="rotate(272 120 120)"/><ellipse cx="120" cy="83" rx="18" ry="25" fill="#EE8A15" opacity="1" transform="rotate(292 120 120)"/><ellipse cx="120" cy="83" rx="18" ry="25" fill="#EE8A15" opacity="1" transform="rotate(312 120 120)"/><ellipse cx="120" cy="83" rx="18" ry="25" fill="#EE8A15" opacity="1" transform="rotate(332 120 120)"/><ellipse cx="120" cy="83" rx="18" ry="25" fill="#EE8A15" opacity="1" transform="rotate(352 120 120)"/><ellipse cx="120" cy="100" rx="16" ry="20" fill="#CB5411" opacity="1" transform="rotate(2 120 120)"/><ellipse cx="120" cy="100" rx="16" ry="20" fill="#CB5411" opacity="1" transform="rotate(27.714285714285715 120 120)"/><ellipse cx="120" cy="100" rx="16" ry="20" fill="#CB5411" opacity="1" transform="rotate(53.42857142857143 120 120)"/><ellipse cx="120" cy="100" rx="16" ry="20" fill="#CB5411" opacity="1" transform="rotate(79.14285714285714 120 120)"/><ellipse cx="120" cy="100" rx="16" ry="20" fill="#CB5411" opacity="1" transform="rotate(104.85714285714286 120 120)"/><ellipse cx="120" cy="100" rx="16" ry="20" fill="#CB5411" opacity="1" transform="rotate(130.57142857142858 120 120)"/><ellipse cx="120" cy="100" rx="16" ry="20" fill="#CB5411" opacity="1" transform="rotate(156.28571428571428 120 120)"/><ellipse cx="120" cy="100" rx="16" ry="20" fill="#CB5411" opacity="1" transform="rotate(182 120 120)"/><ellipse cx="120" cy="100" rx="16" ry="20" fill="#CB5411" opacity="1" transform="rotate(207.71428571428572 120 120)"/><ellipse cx="120" cy="100" rx="16" ry="20" fill="#CB5411" opacity="1" transform="rotate(233.42857142857144 120 120)"/><ellipse cx="120" cy="100" rx="16" ry="20" fill="#CB5411" opacity="1" transform="rotate(259.14285714285717 120 120)"/><ellipse cx="120" cy="100" rx="16" ry="20" fill="#CB5411" opacity="1" transform="rotate(284.8571428571429 120 120)"/><ellipse cx="120" cy="100" rx="16" ry="20" fill="#CB5411" opacity="1" transform="rotate(310.57142857142856 120 120)"/><ellipse cx="120" cy="100" rx="16" ry="20" fill="#CB5411" opacity="1" transform="rotate(336.2857142857143 120 120)"/><path d="M87 122q33-30 66 0-8 33-33 39-25-6-33-39Z" fill="#EE8A15" opacity=".72"/><path d="M94 109q26-25 52 0-7 24-26 29-19-5-26-29Z" fill="#CB5411"/></g></svg>