<svg xmlns="http://www.w3.org/2000/svg" viewBox="0 0 240 240" role="img" aria-labelledby="title"><title id="title">Layered Holi gulal powder cloud</title><defs><filter id="s" x="-30%" y="-30%" width="160%" height="160%"><feDropShadow dx="0" dy="5" stdDeviation="5" flood-color="#26164d" flood-opacity=".2"/></filter><filter id="g" x="-80%" y="-80%" width="260%" height="260%"><feGaussianBlur stdDeviation="7" result="b"/><feMerge><feMergeNode in="b"/><feMergeNode in="SourceGraphic"/></feMerge></filter><linearGradient id="gold" x1="0" y1="0" x2="1" y2="1"><stop stop-color="#ffe28b"/><stop offset=".48" stop-color="#e5a52e"/><stop offset="1" stop-color="#a65d0c"/></linearGradient><linearGradient id="leaf" x1="0" y1="0" x2="1" y2="1"><stop stop-color="#6aa84f"/><stop offset="1" stop-color="#174b35"/></linearGradient></defs><g filter="url(#s)" opacity=".88"><path d="M21 151q-13-54 46-64 7-55 66-31 37-28 68 12 42 7 36 50 18 42-30 57-37 30-79 5-59 29-76-16-22 4-31-13Z" fill="#EC3D85"/><path d="M28 140q23-34 67-24-8-44 36-52 39 5 45 40 43-7 59 25-8 39-52 34-21 37-60 12-40 28-67-6-43 3-28-29Z" fill="#6B35D4" opacity=".72"/><path d="M60 98q21-37 61-15 28-26 57 3 15 33-21 46-16 29-46 10-36 19-51-12-28-8 0-32Z" fill="#18B9C8" opacity=".65"/></g><g fill="#F5B42B" opacity=".8"><circle cx="31" cy="81" r="7"/><circle cx="206" cy="69" r="9"/><circle cx="221" cy="177" r="5"/><circle cx="73" cy="194" r="6"/><circle cx="189" cy="204" r="4"/></g></svg>